<svg width="18" height="18" viewBox="0 0 18 18" fill="none" xmlns="http://www.w3.org/2000/svg">
<path d="M13.167 2.50004H16.5003C16.7213 2.50004 16.9333 2.58784 17.0896 2.74412C17.2459 2.9004 17.3337 3.11236 17.3337 3.33337V16.6667C17.3337 16.8877 17.2459 17.0997 17.0896 17.256C16.9333 17.4122 16.7213 17.5 16.5003 17.5H1.50033C1.27931 17.5 1.06735 17.4122 0.91107 17.256C0.75479 17.0997 0.666992 16.8877 0.666992 16.6667V3.33337C0.666992 3.11236 0.75479 2.9004 0.91107 2.74412C1.06735 2.58784 1.27931 2.50004 1.50033 2.50004H4.83366V0.833374H6.50033V2.50004H11.5003V0.833374H13.167V2.50004ZM11.5003 4.16671H6.50033V5.83337H4.83366V4.16671H2.33366V7.50004H15.667V4.16671H13.167V5.83337H11.5003V4.16671ZM15.667 9.16671H2.33366V15.8334H15.667V9.16671Z" fill="black"/>
</svg>
