<svg width="14" height="13" viewBox="0 0 14 13" fill="none" xmlns="http://www.w3.org/2000/svg">
<path d="M7.00132 1.01932C8.56732 -0.38668 10.9873 -0.340013 12.496 1.17132C14.004 2.68332 14.056 5.09132 12.6533 6.66199L6.99999 12.3233L1.34799 6.66199C-0.0546783 5.09132 -0.00201145 2.67932 1.50532 1.17132C3.01532 -0.338013 5.43066 -0.38868 7.00132 1.01932ZM11.552 2.11332C10.552 1.11199 8.93865 1.07132 7.89199 2.01132L7.00199 2.80999L6.11132 2.01199C5.06132 1.07065 3.45132 1.11199 2.44865 2.11465C1.45532 3.10799 1.40532 4.69799 2.32066 5.74865L7.00065 10.436L11.6807 5.74932C12.5967 4.69799 12.5467 3.10999 11.552 2.11332Z" fill="black"/>
</svg>
